<svg width="25" height="18" viewBox="0 0 25 18" fill="none" xmlns="http://www.w3.org/2000/svg">
<path d="M15.141 11.25C18.116 11.25 24.0547 12.7462 24.0547 15.75V18H6.22739V15.75C6.22739 12.7462 12.1661 11.25 15.141 11.25ZM15.141 9C13.959 9 12.8254 8.52589 11.9896 7.68198C11.1538 6.83807 10.6842 5.69347 10.6842 4.5C10.6842 3.30653 11.1538 2.16193 11.9896 1.31802C12.8254 0.474106 13.959 0 15.141 0C16.3231 0 17.4567 0.474106 18.2925 1.31802C19.1283 2.16193 19.5979 3.30653 19.5979 4.5C19.5979 5.69347 19.1283 6.83807 18.2925 7.68198C17.4567 8.52589 16.3231 9 15.141 9ZM3.99898 6.28875L6.36109 3.8925L7.94327 5.49L5.57001 7.875L7.94327 10.26L6.36109 11.8575L3.99898 9.46125L1.63686 11.8575L0.0546875 10.26L2.42795 7.875L0.0546875 5.49L1.63686 3.8925L3.99898 6.28875Z" fill="#DE4444"/>
</svg>
